<svg width="291" height="142" viewBox="0 0 291 142" fill="none" xmlns="http://www.w3.org/2000/svg">
<path d="M68.3545 1.07055H87.1915V94.3105H72.7645V23.5615L49.9585 81.0175H37.2955L14.4265 24.6325V94.3105H-0.000476435V1.07055H18.8995L43.8475 63.9445L68.3545 1.07055ZM100.341 94.3105V1.07055H115.839V94.3105H100.341ZM179.106 94.3105L155.733 58.3375C155.103 58.3795 154.095 58.4005 152.709 58.4005C150.399 58.4005 147.48 58.3165 143.952 58.1485V94.3105H128.706V2.45654C136.98 0.818541 145.023 -0.000459313 152.835 -0.000459313C164.847 -0.000459313 173.814 2.41454 179.736 7.24454C185.7 12.0745 188.682 19.3405 188.682 29.0425C188.724 35.7625 187.149 41.3695 183.957 45.8635C180.807 50.3575 176.25 53.6545 170.286 55.7545L195.738 94.3105H179.106ZM143.952 45.6745C147.144 45.9265 150.021 46.0525 152.583 46.0525C159.933 46.0525 165.33 44.7085 168.774 42.0205C172.26 39.3325 174.003 35.0275 174.003 29.1055C174.003 23.3515 172.407 19.1095 169.215 16.3795C166.065 13.6495 161.193 12.2845 154.599 12.2845C151.071 12.2845 147.522 12.5575 143.952 13.1035V45.6745ZM250.98 94.3105L243.546 67.4095H212.739L205.368 94.3105H190.185L216.897 1.07055H239.64L266.352 94.3105H250.98ZM216.393 54.1165H239.892L228.111 11.5915L216.393 54.1165ZM271.937 94.3105V1.07055H287.435V94.3105H271.937ZM2.47195 109.4H6.77695L7.13395 111.857H7.40695C7.88295 111.003 8.54795 110.324 9.40195 109.82C10.2559 109.302 11.2569 109.043 12.4049 109.043C13.8749 109.043 15.1979 109.428 16.3739 110.198C17.5639 110.968 18.5089 112.207 19.2089 113.915C19.9229 115.623 20.2799 117.807 20.2799 120.467C20.2799 124.569 19.3629 127.635 17.5289 129.665C15.7089 131.695 12.9299 132.71 9.19195 132.71C8.79995 132.71 8.25395 132.682 7.55395 132.626V141.551H2.47195V109.4ZM9.59095 128.72C10.8229 128.72 11.8379 128.475 12.6359 127.985C13.4339 127.481 14.0359 126.662 14.4419 125.528C14.8619 124.38 15.0719 122.847 15.0719 120.929C15.0719 118.955 14.8969 117.415 14.5469 116.309C14.1969 115.189 13.7139 114.419 13.0979 113.999C12.4819 113.579 11.7259 113.369 10.8299 113.369C10.1859 113.369 9.56295 113.523 8.96095 113.831C8.37295 114.139 7.90395 114.566 7.55395 115.112V128.552C8.15595 128.664 8.83495 128.72 9.59095 128.72ZM31.4582 132.731C28.5042 132.731 26.2362 131.779 24.6542 129.875C23.0722 127.957 22.2812 124.982 22.2812 120.95C22.2812 113.012 25.3402 109.043 31.4582 109.043C34.3982 109.043 36.6592 110.016 38.2412 111.962C39.8372 113.908 40.6352 116.89 40.6352 120.908C40.6352 128.79 37.5762 132.731 31.4582 132.731ZM31.4582 128.846C32.3402 128.846 33.0612 128.622 33.6212 128.174C34.1952 127.726 34.6362 126.928 34.9442 125.78C35.2522 124.632 35.4062 123.036 35.4062 120.992C35.4062 118.892 35.2522 117.254 34.9442 116.078C34.6362 114.902 34.1952 114.083 33.6212 113.621C33.0472 113.159 32.3262 112.928 31.4582 112.928C30.5762 112.928 29.8482 113.159 29.2742 113.621C28.7002 114.069 28.2592 114.874 27.9512 116.036C27.6432 117.198 27.4892 118.808 27.4892 120.866C27.4892 122.952 27.6432 124.576 27.9512 125.738C28.2592 126.9 28.6932 127.712 29.2532 128.174C29.8272 128.622 30.5622 128.846 31.4582 128.846ZM67.989 109.4H72.567L66.981 132.311H61.374L56.922 114.734L52.407 132.311H46.8L41.193 109.4H45.939L49.887 126.473L54.192 109.4H59.799L63.999 126.284L67.989 109.4ZM90.5043 122.483H78.5133C78.5693 124.037 78.8003 125.255 79.2063 126.137C79.6123 127.019 80.2353 127.649 81.0753 128.027C81.9153 128.405 83.0353 128.594 84.4353 128.594C85.8773 128.594 87.5433 128.328 89.4333 127.796V131.933C88.4113 132.213 87.4523 132.416 86.5563 132.542C85.6743 132.668 84.7643 132.731 83.8263 132.731C81.3903 132.731 79.4023 132.332 77.8623 131.534C76.3363 130.722 75.2023 129.448 74.4603 127.712C73.7183 125.962 73.3473 123.652 73.3473 120.782C73.3473 116.862 74.1173 113.929 75.6573 111.983C77.2113 110.023 79.4023 109.043 82.2303 109.043C87.7463 109.043 90.5043 113.005 90.5043 120.929V122.483ZM82.2093 112.529C81.4253 112.529 80.7673 112.725 80.2353 113.117C79.7173 113.509 79.3043 114.195 78.9963 115.175C78.6883 116.155 78.5273 117.506 78.5133 119.228H85.7163C85.7023 117.506 85.5553 116.155 85.2753 115.175C84.9953 114.195 84.6033 113.509 84.0993 113.117C83.5953 112.725 82.9653 112.529 82.2093 112.529ZM92.9967 109.4H97.1967L97.5957 112.55H97.8477C98.4077 111.374 99.1637 110.513 100.116 109.967C101.082 109.407 102.174 109.127 103.392 109.127C103.882 109.127 104.365 109.169 104.841 109.253V113.999C104.365 113.915 103.777 113.873 103.077 113.873C102.055 113.873 101.089 114.111 100.179 114.587C99.2687 115.049 98.5687 115.693 98.0787 116.519V132.311H92.9967V109.4ZM122.375 122.483H110.384C110.44 124.037 110.671 125.255 111.077 126.137C111.483 127.019 112.106 127.649 112.946 128.027C113.786 128.405 114.906 128.594 116.306 128.594C117.748 128.594 119.414 128.328 121.304 127.796V131.933C120.282 132.213 119.323 132.416 118.427 132.542C117.545 132.668 116.635 132.731 115.697 132.731C113.261 132.731 111.273 132.332 109.733 131.534C108.207 130.722 107.073 129.448 106.331 127.712C105.589 125.962 105.218 123.652 105.218 120.782C105.218 116.862 105.988 113.929 107.528 111.983C109.082 110.023 111.273 109.043 114.101 109.043C119.617 109.043 122.375 113.005 122.375 120.929V122.483ZM114.08 112.529C113.296 112.529 112.638 112.725 112.106 113.117C111.588 113.509 111.175 114.195 110.867 115.175C110.559 116.155 110.398 117.506 110.384 119.228H117.587C117.573 117.506 117.426 116.155 117.146 115.175C116.866 114.195 116.474 113.509 115.97 113.117C115.466 112.725 114.836 112.529 114.08 112.529ZM131.776 132.731C130.306 132.731 128.976 132.346 127.786 131.576C126.61 130.806 125.665 129.574 124.951 127.88C124.251 126.172 123.901 123.988 123.901 121.328C123.901 117.212 124.811 114.139 126.631 112.109C128.465 110.079 131.251 109.064 134.989 109.064C135.493 109.064 136.039 109.099 136.627 109.169V98.3745H141.709V132.311H137.404L137.047 129.917H136.774C136.298 130.771 135.633 131.457 134.779 131.975C133.925 132.479 132.924 132.731 131.776 132.731ZM133.33 128.405C133.988 128.405 134.611 128.251 135.199 127.943C135.801 127.635 136.277 127.208 136.627 126.662V113.222C135.871 113.11 135.192 113.054 134.59 113.054C133.358 113.054 132.343 113.306 131.545 113.81C130.747 114.3 130.138 115.119 129.718 116.267C129.312 117.401 129.109 118.927 129.109 120.845C129.109 122.819 129.284 124.366 129.634 125.486C129.984 126.592 130.467 127.355 131.083 127.775C131.699 128.195 132.448 128.405 133.33 128.405ZM160.385 132.71C159.209 132.71 158.012 132.612 156.794 132.416C155.576 132.234 154.491 131.968 153.539 131.618V98.3745H158.621V111.668H158.873C159.363 110.856 160.028 110.219 160.868 109.757C161.722 109.281 162.702 109.043 163.808 109.043C165.222 109.043 166.489 109.435 167.609 110.219C168.743 110.989 169.646 112.228 170.318 113.936C171.004 115.644 171.347 117.828 171.347 120.488C171.347 124.576 170.437 127.635 168.617 129.665C166.811 131.695 164.067 132.71 160.385 132.71ZM160.7 128.72C161.918 128.72 162.919 128.475 163.703 127.985C164.501 127.481 165.103 126.662 165.509 125.528C165.929 124.38 166.139 122.854 166.139 120.95C166.139 118.962 165.957 117.415 165.593 116.309C165.243 115.203 164.753 114.44 164.123 114.02C163.493 113.6 162.716 113.39 161.792 113.39C161.176 113.39 160.574 113.537 159.986 113.831C159.412 114.111 158.957 114.503 158.621 115.007V128.447C159.237 128.629 159.93 128.72 160.7 128.72ZM186.552 109.4H191.634L182.079 141.551H177.06L179.853 132.311H178.194L171.39 109.4H176.661L181.533 127.691L186.552 109.4ZM213.822 132.71C209.482 132.71 206.178 131.464 203.91 128.972C201.642 126.48 200.508 122.434 200.508 116.834C200.508 111.318 201.677 107.272 204.015 104.696C206.367 102.12 209.769 100.832 214.221 100.832C216.167 100.832 218.057 101.07 219.891 101.546V105.977C218.113 105.487 216.335 105.242 214.557 105.242C212.597 105.242 210.987 105.606 209.727 106.334C208.467 107.062 207.515 108.273 206.871 109.967C206.227 111.647 205.905 113.908 205.905 116.75C205.905 119.676 206.22 121.986 206.85 123.68C207.494 125.36 208.439 126.55 209.685 127.25C210.931 127.95 212.527 128.3 214.473 128.3C216.055 128.3 217.861 127.957 219.891 127.271V131.681C219.065 131.989 218.113 132.234 217.035 132.416C215.971 132.612 214.9 132.71 213.822 132.71ZM237.327 122.483H225.336C225.392 124.037 225.623 125.255 226.029 126.137C226.435 127.019 227.058 127.649 227.898 128.027C228.738 128.405 229.858 128.594 231.258 128.594C232.7 128.594 234.366 128.328 236.256 127.796V131.933C235.234 132.213 234.275 132.416 233.379 132.542C232.497 132.668 231.587 132.731 230.649 132.731C228.213 132.731 226.225 132.332 224.685 131.534C223.159 130.722 222.025 129.448 221.283 127.712C220.541 125.962 220.17 123.652 220.17 120.782C220.17 116.862 220.94 113.929 222.48 111.983C224.034 110.023 226.225 109.043 229.053 109.043C234.569 109.043 237.327 113.005 237.327 120.929V122.483ZM229.032 112.529C228.248 112.529 227.59 112.725 227.058 113.117C226.54 113.509 226.127 114.195 225.819 115.175C225.511 116.155 225.35 117.506 225.336 119.228H232.539C232.525 117.506 232.378 116.155 232.098 115.175C231.818 114.195 231.426 113.509 230.922 113.117C230.418 112.725 229.788 112.529 229.032 112.529ZM244.86 132.731C242.83 132.731 240.94 132.43 239.19 131.828V127.712C241.01 128.328 242.872 128.636 244.776 128.636C246.12 128.636 247.114 128.391 247.758 127.901C248.416 127.411 248.745 126.704 248.745 125.78C248.745 125.038 248.563 124.464 248.199 124.058C247.835 123.652 247.268 123.337 246.498 123.113L243.768 122.441C242.004 121.979 240.695 121.23 239.841 120.194C239.001 119.144 238.581 117.751 238.581 116.015C238.581 114.629 238.917 113.411 239.589 112.361C240.275 111.311 241.276 110.499 242.592 109.925C243.922 109.337 245.532 109.043 247.422 109.043C249.088 109.043 250.691 109.225 252.231 109.589V113.705C250.775 113.327 249.256 113.138 247.674 113.138C246.134 113.138 245.007 113.404 244.293 113.936C243.593 114.468 243.243 115.154 243.243 115.994C243.243 116.666 243.418 117.205 243.768 117.611C244.132 118.003 244.699 118.304 245.469 118.514L248.178 119.186C249.998 119.676 251.321 120.432 252.147 121.454C252.987 122.476 253.407 123.876 253.407 125.654C253.407 127.11 253.064 128.37 252.378 129.434C251.692 130.498 250.705 131.317 249.417 131.891C248.143 132.451 246.624 132.731 244.86 132.731ZM262.309 109.043C264.325 109.043 265.963 109.323 267.223 109.883C268.483 110.429 269.421 111.339 270.037 112.613C270.653 113.873 270.961 115.574 270.961 117.716V132.311H266.803L266.425 129.854H266.173C265.613 130.834 264.878 131.555 263.968 132.017C263.058 132.479 262.015 132.71 260.839 132.71C259.593 132.71 258.494 132.451 257.542 131.933C256.59 131.415 255.848 130.673 255.316 129.707C254.798 128.727 254.539 127.579 254.539 126.263C254.539 124.093 255.19 122.42 256.492 121.244C257.794 120.054 259.852 119.354 262.666 119.144L266.026 118.829V117.485C266.026 116.393 265.865 115.539 265.543 114.923C265.235 114.293 264.745 113.845 264.073 113.579C263.401 113.313 262.505 113.18 261.385 113.18C260.573 113.18 259.698 113.257 258.76 113.411C257.822 113.551 256.912 113.761 256.03 114.041V109.904C256.926 109.638 257.941 109.428 259.075 109.274C260.209 109.12 261.287 109.043 262.309 109.043ZM262.519 128.846C263.163 128.846 263.786 128.699 264.388 128.405C265.004 128.111 265.55 127.621 266.026 126.935V121.958L263.191 122.231C260.755 122.441 259.537 123.589 259.537 125.675C259.537 126.739 259.796 127.537 260.314 128.069C260.832 128.587 261.567 128.846 262.519 128.846ZM290.711 122.483H278.72C278.776 124.037 279.007 125.255 279.413 126.137C279.819 127.019 280.442 127.649 281.282 128.027C282.122 128.405 283.242 128.594 284.642 128.594C286.084 128.594 287.75 128.328 289.64 127.796V131.933C288.618 132.213 287.659 132.416 286.763 132.542C285.881 132.668 284.971 132.731 284.033 132.731C281.597 132.731 279.609 132.332 278.069 131.534C276.543 130.722 275.409 129.448 274.667 127.712C273.925 125.962 273.554 123.652 273.554 120.782C273.554 116.862 274.324 113.929 275.864 111.983C277.418 110.023 279.609 109.043 282.437 109.043C287.953 109.043 290.711 113.005 290.711 120.929V122.483ZM282.416 112.529C281.632 112.529 280.974 112.725 280.442 113.117C279.924 113.509 279.511 114.195 279.203 115.175C278.895 116.155 278.734 117.506 278.72 119.228H285.923C285.909 117.506 285.762 116.155 285.482 115.175C285.202 114.195 284.81 113.509 284.306 113.117C283.802 112.725 283.172 112.529 282.416 112.529Z" fill="white"/>
</svg>
